<?xml version="1.0" standalone="no"?>
<!DOCTYPE svg PUBLIC "-//W3C//DTD SVG 20010904//EN"
        "http://www.w3.org/TR/2001/REC-SVG-20010904/DTD/svg10.dtd">
<svg version="1.0" xmlns="http://www.w3.org/2000/svg"
     width="585.000000pt" height="629.000000pt" viewBox="0 0 585.000000 629.000000"
     preserveAspectRatio="xMidYMid meet">

  <g transform="translate(0.000000,629.000000) scale(0.100000,-0.100000)"
     fill="#020617" stroke="none">
    <path d="M3230 5623 c-194 -21 -361 -47 -397 -63 -61 -27 -110 -67 -146 -119
-17 -25 -53 -68 -81 -96 -102 -103 -146 -198 -146 -318 0 -29 -9 -84 -19 -122
-11 -39 -27 -113 -36 -165 -9 -52 -26 -117 -38 -145 -27 -63 -117 -204 -172
-270 -51 -61 -64 -84 -81 -150 -26 -97 -11 -291 30 -380 l23 -52 -44 -28 c-52
-32 -140 -105 -230 -189 -48 -45 -66 -70 -76 -105 -12 -43 -15 -46 -54 -53
-76 -13 -157 -66 -202 -132 -15 -23 -45 -81 -66 -131 -34 -79 -39 -102 -43
-191 -4 -96 -3 -103 24 -154 16 -29 35 -64 43 -79 23 -44 62 -80 100 -92 20
-6 55 -19 78 -30 24 -10 47 -19 52 -19 18 0 20 -17 11 -73 -8 -50 -15 -62 -71
-118 -119 -121 -309 -365 -309 -397 0 -8 -16 -35 -36 -58 -19 -24 -56 -81 -81
-127 -25 -45 -87 -145 -139 -222 -51 -77 -101 -162 -110 -188 -14 -42 -23 -51
-68 -74 -74 -37 -124 -73 -244 -176 -59 -51 -123 -104 -143 -119 -56 -42 -129
-119 -158 -168 -14 -25 -42 -66 -60 -92 -33 -45 -40 -49 -134 -78 -55 -17
-124 -42 -153 -55 l-54 -24 0 -166 0 -165 37 16 c130 54 267 105 325 119 54
14 76 15 118 6 83 -18 170 -13 265 14 121 35 327 137 395 194 30 26 82 67 115
91 33 24 87 66 120 93 92 74 116 84 235 90 133 7 579 80 685 112 123 38 194
85 322 216 62 64 127 134 144 157 34 46 268 252 339 298 25 16 82 56 127 89
45 33 131 92 192 130 61 39 159 103 218 144 60 41 164 113 233 160 69 46 170
117 225 158 55 40 118 86 140 101 75 54 312 192 406 236 122 58 193 73 441 91
42 3 101 10 130 16 95 18 195 13 281 -15 120 -40 194 -34 314 26 l43 22 0 195
0 195 -47 -46 c-27 -25 -76 -60 -111 -78 l-62 -33 -73 23 c-100 31 -243 37
-388 16 -63 -8 -130 -17 -151 -19 l-36 -3 61 69 c34 38 96 113 137 167 41 54
109 136 150 183 42 46 90 113 108 148 62 125 132 430 132 577 0 71 -73 342
-105 390 -15 23 -50 56 -78 75 -152 100 -226 147 -263 165 -56 28 -73 59 -84
150 -17 138 -33 179 -111 272 -58 70 -152 134 -278 190 -48 21 -129 61 -180
90 -173 95 -210 103 -349 73 -112 -24 -351 -21 -505 6 -111 20 -278 26 -387
14z m306 -314 c158 -29 520 -38 619 -15 l70 17 75 -40 c116 -61 168 -87 261
-131 48 -23 101 -57 122 -78 35 -36 38 -45 56 -154 10 -64 27 -133 37 -154 29
-60 131 -162 195 -195 32 -15 95 -53 140 -84 46 -30 86 -55 90 -55 4 0 19 -49
34 -109 32 -131 29 -201 -16 -380 -40 -156 -55 -184 -148 -290 -45 -51 -93
-109 -108 -129 -104 -140 -317 -361 -408 -422 -27 -19 -66 -46 -86 -62 -19
-16 -84 -48 -144 -73 -59 -25 -124 -54 -142 -65 -19 -11 -52 -20 -73 -20 -22
0 -64 -7 -95 -15 -31 -8 -91 -17 -133 -20 -42 -4 -99 -11 -125 -17 -29 -6 -85
-7 -140 -3 l-92 7 -36 56 c-19 31 -52 92 -73 134 -40 82 -71 115 -140 150 -22
11 -70 44 -106 73 -36 28 -79 61 -95 72 -17 12 -36 32 -44 45 -7 12 -32 39
-56 58 -34 26 -45 43 -50 72 -14 80 -98 126 -175 95 -38 -15 -40 -14 -77 12
-21 15 -51 45 -68 67 -16 21 -34 44 -41 49 -14 13 -107 153 -129 195 -9 17
-19 68 -22 114 l-6 83 59 76 c125 161 205 319 231 460 9 45 27 127 40 182 14
55 27 135 30 179 l6 78 71 77 c39 43 80 89 91 104 18 25 30 28 135 42 313 40
328 40 466 14z m-1106 -1919 c25 -25 74 -61 108 -80 101 -56 94 -43 77 -140
-7 -47 -23 -132 -34 -190 -11 -58 -21 -118 -23 -134 -3 -25 -10 -30 -58 -45
-30 -10 -103 -39 -162 -64 -59 -26 -117 -47 -128 -47 -21 0 -21 1 4 31 14 17
26 36 26 42 0 7 7 25 16 42 26 51 41 145 34 215 -12 107 -90 224 -192 287 -16
10 -28 23 -28 30 0 12 102 99 189 161 l46 33 40 -48 c22 -26 60 -68 85 -93z
m563 -407 c38 -29 86 -62 107 -74 30 -17 44 -35 64 -79 33 -77 129 -222 171
-258 43 -39 78 -49 204 -62 130 -13 216 -13 260 0 44 12 42 11 -119 -99 -74
-51 -172 -118 -218 -149 -46 -31 -132 -88 -193 -127 -60 -38 -153 -102 -207
-141 -53 -38 -122 -86 -152 -106 -94 -61 -299 -248 -450 -412 -179 -194 -196
-204 -410 -240 -136 -23 -170 -27 -170 -19 0 5 14 49 31 98 78 234 102 328
106 430 4 92 3 103 -19 134 -38 56 -97 81 -192 81 l-81 1 30 22 c63 45 141
127 175 182 19 31 56 78 83 105 37 38 47 54 47 81 0 33 1 34 73 56 39 12 104
29 143 37 39 8 100 29 134 46 35 18 111 47 169 66 58 20 125 46 147 59 52 30
84 94 84 164 0 45 14 130 41 253 l11 48 31 -22 c18 -12 63 -46 100 -75z
m-1233 -1286 c0 -8 -36 -125 -79 -262 -27 -82 -56 -175 -66 -205 -9 -30 -21
-58 -27 -61 -5 -3 -40 -4 -78 -1 -66 4 -71 3 -155 -42 -48 -25 -125 -76 -171
-113 -47 -38 -107 -84 -134 -103 -26 -19 -68 -51 -92 -71 -71 -60 -338 -177
-338 -149 0 21 364 327 420 354 134 64 164 93 201 192 12 32 64 121 114 196
51 76 108 167 126 203 l34 65 123 0 c67 0 122 -1 122 -3z"/>
  </g>
</svg>
